<svg width="10" height="6" viewBox="0 0 10 6" fill="none" xmlns="http://www.w3.org/2000/svg">
<path d="M4.99661 6L0.078233 0.529182C0.0280365 0.471498 -6.19602e-05 0.393845 4.76423e-08 0.312976C6.20555e-05 0.232107 0.0282813 0.154507 0.0785662 0.0969206C0.128851 0.0393347 0.197169 0.00638 0.268782 0.00516625C0.340396 0.0039525 0.409564 0.0345769 0.461357 0.0904327L4.99661 5.13483L9.53187 0.0904343C9.5834 0.0324159 9.65323 -0.000113569 9.726 2.00741e-06C9.79878 0.000117584 9.86852 0.0328694 9.91991 0.0910512C9.97129 0.149233 10.0001 0.22808 10 0.310246C9.9999 0.392412 9.97089 0.471166 9.91936 0.529184L4.99661 6Z" fill="#C4D400"/>
</svg>
